# xmcd CD database file
#
# Track frame offsets:
#	187
#	25720
#	42505
#	61632
#	80207
#	103317
#	139425
#	162677
#	173432
#	196657
#	213162
#	233337
#
# Disc length: 3316 seconds
#
# Revision: 8
# Processed by: cddbd v1.5.2PL0 Copyright (c) Steve Scherf et al.
# Submitted via: CDex 1.51
#
DISCID=9c0cf20c
DTITLE=Rory Gallagher - Fresh Evidence
DYEAR=1990
DGENRE=Blues Rock
TTITLE0=Kid Gloves
TTITLE1=The King Of Zydeco
TTITLE2=Middle Name
TTITLE3=Alexis
TTITLE4=Empire State Express
TTITLE5=Ghost Blues
TTITLE6=Heaven's Gate
TTITLE7=The Loop
TTITLE8=Walkin' Wounded
TTITLE9=Slumming Angel
TTITLE10=Never Asked You For Nothin'
TTITLE11=Bowed Not Broken
EXTD=YEAR: 1990
EXTT0=
EXTT1=
EXTT2=
EXTT3=
EXTT4=
EXTT5=
EXTT6=
EXTT7=
EXTT8=
EXTT9=
EXTT10=
EXTT11=
PLAYORDER=
